<?xml version="1.0" encoding="utf-8"?>
<svg version="1.1" id="Layer_1" x="0px" y="0px" viewBox="0 0 1024 672" enable-background="new 0 0 1024 672" preserveAspectRatio="xMinYMid meet" xmlns="http://www.w3.org/2000/svg">
  <g transform="matrix(1, 0, 0, 1, 1.284859, -0.304194)">
    <g>
      <path fill="#FFFFFF" d="M68.6,656.08h-0.38c-3.84,4.99-8.57,8.57-14.19,10.74c-5.63,2.17-11.38,3.26-17.26,3.26 c-4.35,0-8.44-0.61-12.28-1.82c-3.84-1.21-7.13-3.03-9.88-5.47c-2.75-2.43-4.76-5.43-6.04-9.01c-1.28-3.58-1.6-7.73-0.96-12.47 c1.15-8.06,4.19-14.29,9.11-18.7c4.92-4.41,10.74-7.67,17.45-9.78c6.71-2.11,13.74-3.36,21.1-3.74 c7.35-0.38,14.03-0.57,20.04-0.57c0.64-5.11-0.64-9.17-3.84-12.18c-3.2-3-7.29-4.51-12.28-4.51c-4.73,0-9.18,0.99-13.33,2.97 c-4.16,1.98-8.03,4.7-11.6,8.15l-13.04-15.73c6.01-4.99,12.75-8.73,20.23-11.22c7.48-2.49,15.06-3.74,22.73-3.74 c8.44,0,15.25,1.06,20.43,3.16c5.18,2.11,9.11,5.21,11.8,9.3c2.69,4.09,4.25,9.11,4.7,15.06c0.45,5.95,0.1,12.82-1.06,20.62 l-6.52,47.37H67.07L68.6,656.08z M65.53,626.93c-2.18,0-4.89,0.1-8.15,0.29c-3.26,0.19-6.46,0.74-9.59,1.63 c-3.13,0.9-5.88,2.24-8.25,4.03c-2.37,1.79-3.74,4.28-4.12,7.48c-0.26,1.79-0.07,3.29,0.57,4.51c0.64,1.22,1.53,2.27,2.69,3.16 c1.15,0.9,2.52,1.53,4.12,1.92c1.6,0.38,3.16,0.58,4.7,0.58c2.81,0,5.59-0.38,8.34-1.15c2.75-0.77,5.24-1.85,7.48-3.26 c2.24-1.4,4.12-3.19,5.66-5.37c1.53-2.17,2.49-4.73,2.88-7.67l0.77-6.14H65.53z"/>
      <path fill="#FFFFFF" d="M109.99,574.57h31.07l14.58,63.29h0.38l30.88-63.29h28.96l-49.87,93.21H135.5L109.99,574.57z"/>
      <path fill="#FFFFFF" d="M224.24,574.57h28.77l-13.04,93.21H211.2L224.24,574.57z M225.97,545.22c0.38-2.3,1.15-4.47,2.3-6.52 c1.15-2.04,2.59-3.8,4.32-5.27c1.73-1.47,3.67-2.65,5.85-3.55c2.17-0.89,4.41-1.34,6.71-1.34c4.6,0,8.28,1.63,11.03,4.89 c2.75,3.26,3.8,7.19,3.16,11.8c-0.26,2.3-0.96,4.48-2.11,6.52c-1.15,2.05-2.59,3.81-4.32,5.28c-1.73,1.47-3.68,2.65-5.85,3.55 c-2.18,0.89-4.41,1.34-6.71,1.34c-2.3,0-4.41-0.45-6.33-1.34c-1.92-0.89-3.52-2.08-4.79-3.55c-1.28-1.47-2.21-3.23-2.78-5.28 C225.87,549.7,225.71,547.52,225.97,545.22z"/>
      <path fill="#FFFFFF" d="M321.69,601.99c-3.45-5.24-8.7-7.86-15.73-7.86c-2.43,0-4.86,0.57-7.29,1.73 c-2.43,1.15-3.84,3.14-4.22,5.95c-0.38,2.3,0.57,4,2.88,5.08c2.3,1.09,5.18,2.05,8.63,2.88c3.45,0.83,7.19,1.73,11.22,2.68 c4.03,0.96,7.7,2.46,11.03,4.51c3.32,2.05,5.91,4.83,7.77,8.34c1.85,3.52,2.4,8.22,1.63,14.1c-0.77,6.01-2.75,10.96-5.95,14.86 c-3.2,3.9-7,7.03-11.41,9.4c-4.41,2.37-9.24,4.03-14.48,4.99c-5.24,0.96-10.36,1.44-15.34,1.44c-6.52,0-12.98-0.93-19.37-2.78 c-6.39-1.85-11.57-5.15-15.54-9.88l20.14-19.37c2.3,3.33,4.95,5.85,7.96,7.58c3,1.73,6.68,2.59,11.03,2.59 c3.32,0,6.39-0.48,9.21-1.44c2.81-0.96,4.41-2.71,4.79-5.27c0.38-2.43-0.55-4.25-2.78-5.47c-2.24-1.21-5.12-2.24-8.63-3.07 c-3.52-0.83-7.29-1.73-11.32-2.68c-4.03-0.96-7.74-2.4-11.12-4.32c-3.39-1.92-6.04-4.63-7.96-8.15c-1.92-3.52-2.43-8.21-1.53-14.1 c0.77-5.5,2.56-10.23,5.37-14.19c2.81-3.96,6.23-7.22,10.26-9.78c4.03-2.56,8.47-4.44,13.33-5.66c4.86-1.21,9.72-1.82,14.58-1.82 c6.14,0,12.21,0.9,18.22,2.69c6.01,1.79,10.87,4.99,14.58,9.59L321.69,601.99z"/>
      <path fill="#FFFFFF" d="M406.41,656.08h-0.38c-3.84,4.99-8.57,8.57-14.19,10.74c-5.63,2.17-11.38,3.26-17.26,3.26 c-4.35,0-8.44-0.61-12.28-1.82c-3.84-1.21-7.13-3.03-9.88-5.47c-2.75-2.43-4.76-5.43-6.04-9.01c-1.28-3.58-1.6-7.73-0.96-12.47 c1.15-8.06,4.19-14.29,9.11-18.7c4.92-4.41,10.74-7.67,17.45-9.78c6.71-2.11,13.74-3.36,21.1-3.74 c7.35-0.38,14.03-0.57,20.04-0.57c0.64-5.11-0.64-9.17-3.84-12.18c-3.2-3-7.29-4.51-12.28-4.51c-4.73,0-9.18,0.99-13.33,2.97 c-4.16,1.98-8.03,4.7-11.6,8.15l-13.04-15.73c6.01-4.99,12.75-8.73,20.23-11.22c7.48-2.49,15.06-3.74,22.73-3.74 c8.44,0,15.25,1.06,20.43,3.16c5.18,2.11,9.11,5.21,11.8,9.3c2.69,4.09,4.25,9.11,4.7,15.06c0.45,5.95,0.1,12.82-1.06,20.62 l-6.52,47.37h-26.47L406.41,656.08z M403.34,626.93c-2.18,0-4.89,0.1-8.15,0.29c-3.26,0.19-6.46,0.74-9.59,1.63 c-3.13,0.9-5.88,2.24-8.25,4.03c-2.37,1.79-3.74,4.28-4.12,7.48c-0.26,1.79-0.07,3.29,0.57,4.51c0.64,1.22,1.53,2.27,2.69,3.16 c1.15,0.9,2.52,1.53,4.12,1.92c1.6,0.38,3.16,0.58,4.7,0.58c2.81,0,5.59-0.38,8.34-1.15c2.75-0.77,5.24-1.85,7.48-3.26 c2.24-1.4,4.12-3.19,5.66-5.37c1.53-2.17,2.49-4.73,2.88-7.67l0.77-6.14H403.34z"/>
      <path fill="#FFFFFF" d="M511.89,599.89c1.53-10.87,4.76-20.71,9.69-29.54c4.92-8.82,11.06-16.33,18.41-22.54 c7.35-6.2,15.76-10.96,25.22-14.29c9.46-3.32,19.5-4.99,30.11-4.99c10.61,0,20.14,1.66,28.58,4.99 c8.44,3.33,15.47,8.09,21.1,14.29c5.63,6.2,9.65,13.71,12.08,22.54c2.43,8.82,2.88,18.67,1.34,29.54 c-1.53,10.87-4.73,20.71-9.59,29.54c-4.86,8.82-11,16.34-18.41,22.54c-7.42,6.2-15.82,10.96-25.22,14.29 c-9.4,3.32-19.4,4.99-30.02,4.99c-10.61,0-20.17-1.66-28.67-4.99c-8.5-3.32-15.57-8.08-21.19-14.29 c-5.63-6.2-9.66-13.71-12.08-22.54C510.8,620.6,510.36,610.75,511.89,599.89z M542.96,599.89c-0.9,6.39-0.7,12.24,0.58,17.55 c1.28,5.31,3.48,9.91,6.62,13.81c3.13,3.9,7.13,6.94,11.99,9.11c4.86,2.18,10.48,3.26,16.88,3.26c6.39,0,12.34-1.08,17.84-3.26 c5.5-2.17,10.36-5.21,14.58-9.11c4.22-3.9,7.7-8.5,10.45-13.81c2.75-5.3,4.57-11.16,5.47-17.55c0.89-6.26,0.73-12.08-0.48-17.45 c-1.22-5.37-3.42-10-6.62-13.9c-3.2-3.9-7.23-6.93-12.08-9.11c-4.86-2.17-10.49-3.26-16.88-3.26c-6.4,0-12.34,1.09-17.84,3.26 c-5.5,2.18-10.36,5.21-14.58,9.11c-4.22,3.9-7.7,8.53-10.45,13.9C545.68,587.8,543.86,593.62,542.96,599.89z"/>
      <path fill="#FFFFFF" d="M 847.796 562.409 C 845.746 559.339 842.746 557.069 838.786 555.599 C 834.826 554.129 830.986 553.389 827.276 553.389 C 825.096 553.389 822.796 553.649 820.366 554.159 C 817.936 554.669 815.666 555.469 813.556 556.559 C 811.446 557.649 809.626 559.089 808.086 560.869 C 806.556 562.659 805.596 564.839 805.206 567.389 C 804.826 570.459 805.366 572.979 806.836 574.959 C 808.306 576.939 810.416 578.609 813.166 579.949 C 815.916 581.289 819.106 582.479 822.756 583.499 C 826.396 584.519 830.076 585.679 833.786 586.949 C 837.496 588.229 841.106 589.759 844.626 591.549 C 848.146 593.339 851.176 595.609 853.736 598.359 C 856.296 601.109 858.176 604.559 859.396 608.719 C 860.606 612.879 860.766 617.899 859.876 623.779 C 858.856 631.329 856.516 637.909 852.876 643.539 C 849.236 649.169 844.756 653.829 839.446 657.539 C 834.136 661.249 828.196 663.999 821.606 665.789 C 815.016 667.579 808.216 668.479 801.176 668.479 C 792.356 668.479 784.366 667.139 777.206 664.449 C 770.046 661.769 763.586 657.419 757.836 651.409 L 782.576 628.009 C 785.136 632.099 788.556 635.269 792.836 637.499 C 797.116 639.739 801.756 640.859 806.746 640.859 C 809.176 640.859 811.666 640.569 814.226 639.999 C 816.786 639.419 819.146 638.559 821.326 637.409 C 823.496 636.259 825.326 634.789 826.796 632.999 C 828.266 631.209 829.196 629.099 829.576 626.669 C 830.216 622.579 829.096 619.349 826.216 616.979 C 823.336 614.609 819.666 612.599 815.186 610.939 C 810.706 609.279 805.856 607.619 800.606 605.949 C 795.356 604.289 790.566 602.049 786.226 599.239 C 781.876 596.429 778.456 592.719 775.966 588.119 C 773.476 583.519 772.736 577.449 773.766 569.899 C 774.786 562.609 777.126 556.219 780.766 550.719 C 784.416 545.219 788.916 540.619 794.286 536.909 C 799.656 533.199 805.606 530.419 812.126 528.569 C 818.646 526.719 825.226 525.789 831.876 525.789 C 839.546 525.789 846.806 526.879 853.646 529.049 C 860.486 531.219 866.396 534.869 871.386 539.979 L 847.796 562.409 Z"/>
      <path fill="#FFFFFF" d="M 683.545 528.521 L 713.465 528.521 L 698.315 636.691 L 753.745 636.691 L 749.905 664.311 L 664.555 664.311 L 683.545 528.521 Z"/>
      <path fill="#FFFFFF" d="M869.16,599.89c1.53-10.87,4.76-20.71,9.69-29.54c4.92-8.82,11.06-16.33,18.41-22.54 c7.35-6.2,15.76-10.96,25.22-14.29c9.46-3.32,19.5-4.99,30.11-4.99c10.61,0,20.14,1.66,28.58,4.99 c8.44,3.33,15.47,8.09,21.1,14.29c5.63,6.2,9.65,13.71,12.08,22.54c2.43,8.82,2.88,18.67,1.34,29.54 c-1.53,10.87-4.73,20.71-9.59,29.54c-4.86,8.82-11,16.34-18.41,22.54c-7.42,6.2-15.82,10.96-25.22,14.29 c-9.4,3.32-19.4,4.99-30.02,4.99c-10.61,0-20.17-1.66-28.67-4.99c-8.5-3.32-15.57-8.08-21.19-14.29 c-5.63-6.2-9.66-13.71-12.08-22.54C868.07,620.6,867.63,610.75,869.16,599.89z M900.23,599.89c-0.9,6.39-0.7,12.24,0.58,17.55 c1.28,5.31,3.48,9.91,6.62,13.81c3.13,3.9,7.13,6.94,11.99,9.11c4.86,2.18,10.48,3.26,16.88,3.26c6.39,0,12.34-1.08,17.84-3.26 c5.5-2.17,10.36-5.21,14.58-9.11c4.22-3.9,7.7-8.5,10.45-13.81c2.75-5.3,4.57-11.16,5.47-17.55c0.89-6.26,0.73-12.08-0.48-17.45 c-1.22-5.37-3.42-10-6.62-13.9c-3.2-3.9-7.23-6.93-12.08-9.11c-4.86-2.17-10.49-3.26-16.88-3.26c-6.4,0-12.34,1.09-17.84,3.26 c-5.5,2.18-10.36,5.21-14.58,9.11c-4.22,3.9-7.7,8.53-10.45,13.9C902.95,587.8,901.13,593.62,900.23,599.89z"/>
    </g>
    <g>
      <path fill="#FFFFFF" d="M306.27,418.32h-1.91c-19.1,24.83-42.66,42.66-70.67,53.48c-28.02,10.82-56.67,16.24-85.95,16.24 c-21.65,0-42.02-3.03-61.12-9.07c-19.1-6.04-35.5-15.12-49.18-27.22c-13.7-12.09-23.72-27.05-30.08-44.88 C1,389.04-0.6,368.35,2.6,344.79c5.73-40.11,20.85-71.14,45.36-93.11c24.5-21.96,53.48-38.2,86.9-48.7 c33.42-10.5,68.43-16.71,105.05-18.62c36.6-1.91,69.86-2.87,99.79-2.87c3.18-25.46-3.19-45.67-19.1-60.64 c-15.92-14.95-36.29-22.44-61.12-22.44c-23.56,0-45.69,4.94-66.37,14.8c-20.7,9.88-39.96,23.4-57.77,40.59L70.4,75.49 c29.92-24.83,63.5-43.45,100.75-55.87C208.39,7.21,246.11,1,284.31,1c42.02,0,75.92,5.25,101.7,15.76 c25.78,10.5,45.36,25.95,58.73,46.32c13.37,20.38,21.16,45.36,23.4,74.96c2.22,29.6,0.48,63.83-5.25,102.66l-32.47,235.88H298.64 L306.27,418.32z M291,273.16c-10.83,0-24.35,0.48-40.59,1.43s-32.16,3.67-47.75,8.12c-15.61,4.46-29.29,11.15-41.06,20.05 c-11.79,8.92-18.62,21.34-20.53,37.24c-1.28,8.92-0.33,16.4,2.87,22.44c3.18,6.06,7.64,11.31,13.37,15.76 c5.73,4.46,12.56,7.64,20.53,9.55c7.95,1.91,15.76,2.87,23.4,2.87c14,0,27.84-1.91,41.54-5.73c13.68-3.82,26.1-9.22,37.24-16.23 c11.13-7,20.53-15.91,28.17-26.74c7.64-10.82,12.41-23.55,14.32-38.2l3.82-30.56H291z"/>
      <path fill="#FFFFFF" d="M504.61,244.52c5.09-36.91,16.39-70.34,33.9-100.27c17.51-29.92,39.3-55.54,65.41-76.87 c26.1-21.32,55.7-37.72,88.81-49.18C725.83,6.73,760.21,1,795.87,1c35.65,0,68.43,5.73,98.36,17.19 c29.92,11.46,55.06,27.86,75.44,49.18c20.37,21.34,35.17,46.96,44.41,76.87c9.22,29.93,11.3,63.36,6.21,100.27 c-5.1,36.93-16.56,70.35-34.38,100.27c-17.83,29.93-39.79,55.55-65.89,76.87c-26.11,21.34-55.72,37.72-88.81,49.18 c-33.11,11.46-67.49,17.19-103.14,17.19c-35.66,0-68.44-5.73-98.36-17.19c-29.93-11.46-54.91-27.84-74.96-49.18 c-20.05-21.32-34.71-46.94-43.93-76.87C501.58,314.87,499.5,281.45,504.61,244.52z M647.85,244.52 c-5.1,35.02,0.79,63.36,17.67,84.99c16.86,21.65,43.45,32.47,79.74,32.47c36.29,0,66.04-10.82,89.29-32.47 c23.23-21.64,37.39-49.97,42.49-84.99c5.09-35.01-0.95-63.34-18.14-84.99c-17.19-21.64-43.93-32.47-80.22-32.47 c-36.29,0-65.89,10.83-88.81,32.47C666.95,181.17,652.94,209.51,647.85,244.52z"/>
    </g>
  </g>
</svg>